<svg xmlns="http://www.w3.org/2000/svg" viewBox="0 0 1920.1 375.93"><defs><style>.cls-1{fill:#fff;}</style></defs><g id="Calque_2" data-name="Calque 2"><g id="Main"><g id="logo-white"><g id="logo-center"><g id="slogan"><path id="path23371" class="cls-1" d="M486.8,356.73q-2.1-.3-11.1-.3h-1.4v-49.6h-8.9c-2.6,0-4.2.1-4.7.4a7.17,7.17,0,0,0-1.1.7h-.1v-11.5l.1-.1c1,.3,3.6.5,8,.5h28.1c2.6,0,4.2-.1,4.7-.4a7.17,7.17,0,0,0,1.1-.7h.1v11.5l-.1.1c-1-.3-3.6-.5-8-.5h-6.7Z"/><path id="path23373" class="cls-1" d="M515.4,333.23a27,27,0,0,1,1.7-9.4,24.26,24.26,0,0,1,4.8-7.9c4.6-4.8,10.5-7.3,17.8-7.3s13,2.3,17.3,6.9c4.1,4.4,6.1,10,6.1,17s-2.1,12.7-6.3,17.3c-4.5,4.8-10.4,7.3-17.7,7.3-7.6,0-13.5-2.4-17.8-7.1C517.4,345.63,515.4,340,515.4,333.23Zm10.9-.2a17.13,17.13,0,0,0,.9,5.5,11.3,11.3,0,0,0,2.7,4.5,12.67,12.67,0,0,0,9.8,4.1,10.56,10.56,0,0,0,8.8-4c2.1-2.6,3.1-5.9,3.1-10s-1.1-7.6-3.2-10.1c-2.3-2.8-5.5-4.1-9.5-4.1a11.74,11.74,0,0,0-9.6,4.4A15.79,15.79,0,0,0,526.3,333Z"/><path id="path23375" class="cls-1" d="M577.7,333.23a27,27,0,0,1,1.7-9.4,24.26,24.26,0,0,1,4.8-7.9c4.6-4.8,10.5-7.3,17.8-7.3s13,2.3,17.3,6.9c4.1,4.4,6.1,10,6.1,17s-2.1,12.7-6.3,17.3c-4.5,4.8-10.4,7.3-17.7,7.3-7.6,0-13.5-2.4-17.8-7.1C579.6,345.63,577.7,340,577.7,333.23Zm10.9-.2a17.13,17.13,0,0,0,.9,5.5,11.3,11.3,0,0,0,2.7,4.5,12.67,12.67,0,0,0,9.8,4.1,10.56,10.56,0,0,0,8.8-4c2.1-2.6,3.1-5.9,3.1-10s-1.1-7.6-3.2-10.1c-2.3-2.8-5.5-4.1-9.5-4.1a11.74,11.74,0,0,0-9.6,4.4A15.18,15.18,0,0,0,588.6,333Z"/><path id="path23377" class="cls-1" d="M653.7,351.43a45.09,45.09,0,0,0,.2,5H642.5v-66.8h11.2Z"/><path id="path23379" class="cls-1" d="M690.7,357.13c-8.4,0-14.8-1.5-19.1-4.6.1-.9.1-1.9.3-3l.4-3.2c.2-2.1.4-3.4.4-3.9a4.4,4.4,0,0,0,.1-.9c0-.1.3.2.7.7a11.5,11.5,0,0,0,2.6,1.9,34.51,34.51,0,0,0,4.3,2,34.88,34.88,0,0,0,11.1,1.8c5.2,0,7.8-1.7,7.8-5.2a2.75,2.75,0,0,0-1.5-2.5,24.25,24.25,0,0,0-7.8-2,36.61,36.61,0,0,1-8.4-2.1,17.73,17.73,0,0,1-5.3-3.2,12.36,12.36,0,0,1-3.8-9.3,12.94,12.94,0,0,1,5.4-11c3.6-2.6,8.5-3.9,14.8-3.9a24.79,24.79,0,0,1,15.9,5.3,14.16,14.16,0,0,1-.7,2.2c-.7,2-1.2,3.4-1.5,4.3l-1,2.6a1,1,0,0,0-.1.4c-.1,0-.3-.3-.7-.9-1.9-2.2-4.8-3.6-8.8-4.3a23.28,23.28,0,0,0-3.8-.4c-5.4,0-8.2,1.6-8.2,4.9a2.91,2.91,0,0,0,1.7,2.6,26.67,26.67,0,0,0,8.7,2.5,29.38,29.38,0,0,1,8.4,2.2,13.61,13.61,0,0,1,4.6,3.3c2.2,2.3,3.2,5.4,3.2,9.3a12.56,12.56,0,0,1-5.1,10.3C701.9,355.73,697,357.13,690.7,357.13Z"/><path id="path23381" class="cls-1" d="M782.5,314.73a35.94,35.94,0,0,0-.4,6.5v3.9H771.3v31.2h-11v-31.2h-6.6c0-2,.1-3.7.1-5.2l.1-4.8v-.4h6.4v-2.8c0-7.2,1.7-12.9,5-17.3a17.29,17.29,0,0,1,14.4-6.8,18.69,18.69,0,0,1,5.2.5v11.3l-.1.2a6,6,0,0,0-4.3-1.7,8.71,8.71,0,0,0-4.2.9,7.19,7.19,0,0,0-2.7,2.5,15.3,15.3,0,0,0-2.3,8.8v4.3Z"/><path id="path23383" class="cls-1" d="M796,333.23a27,27,0,0,1,1.7-9.4,24.26,24.26,0,0,1,4.8-7.9c4.6-4.8,10.5-7.3,17.8-7.3s13,2.3,17.3,6.9c4.1,4.4,6.1,10,6.1,17s-2.1,12.7-6.3,17.3c-4.5,4.8-10.4,7.3-17.7,7.3-7.6,0-13.5-2.4-17.8-7.1C797.9,345.63,796,340,796,333.23Zm10.9-.2a17.13,17.13,0,0,0,.9,5.5,11.3,11.3,0,0,0,2.7,4.5,12.67,12.67,0,0,0,9.8,4.1,10.56,10.56,0,0,0,8.8-4c2.1-2.6,3.1-5.9,3.1-10s-1.1-7.6-3.2-10.1c-2.3-2.8-5.5-4.1-9.5-4.1a11.74,11.74,0,0,0-9.6,4.4A15.18,15.18,0,0,0,806.9,333Z"/><path id="path23385" class="cls-1" d="M872.2,351.43a45.09,45.09,0,0,0,.2,5H861.2v-46.9h11V313c2.5-2.9,5.2-4.3,8-4.3a17,17,0,0,1,6.6,1l-.8,12.1-.2.1c-1-1.9-3.2-2.8-6.5-2.8a7,7,0,0,0-3.9,1.3,10.74,10.74,0,0,0-3.3,3.4v27.6Z"/><path id="path23387" class="cls-1" d="M929.2,333.43a25.75,25.75,0,0,1,1.8-9.7,23,23,0,0,1,5.1-7.8c4.7-4.8,10.8-7.1,18.3-7.1q9.6,0,15.3,6.3a21.65,21.65,0,0,1,5.7,15.3,15.84,15.84,0,0,1-.5,4.8c-3,.8-9.1,1.3-18.3,1.3H940.8a12.12,12.12,0,0,0,5.4,7.5c2.8,1.8,6.5,2.6,11.1,2.6a26.81,26.81,0,0,0,12.2-2.6,6.89,6.89,0,0,0,2-1.3c-.1,1.3-.1,2.5-.2,3.9l-.5,7c-2.3,1.6-5.9,2.6-11,3.2a32.19,32.19,0,0,1-4.3.3c-7.6,0-13.9-2.2-18.8-6.6A22,22,0,0,1,929.2,333.43Zm34.2-5.7q-1.8-9.6-10.5-9.6a11.59,11.59,0,0,0-10.4,5.9,17.06,17.06,0,0,0-1.7,3.9c.7,0,1.6.1,2.6.1H957l3.7-.1C961.8,327.83,962.7,327.83,963.4,327.73Z"/><path id="path23389" class="cls-1" d="M986.9,309.53h12.7l10.9,30.9,10.6-30.9h12.4l-18.5,46.9h-9.2Z"/><path id="path23391" class="cls-1" d="M1046.3,333.43a25.75,25.75,0,0,1,1.8-9.7,23,23,0,0,1,5.1-7.8c4.7-4.8,10.8-7.1,18.3-7.1q9.6,0,15.3,6.3a21.65,21.65,0,0,1,5.7,15.3,15.84,15.84,0,0,1-.5,4.8c-3,.8-9.1,1.3-18.3,1.3h-15.8a12.12,12.12,0,0,0,5.4,7.5c2.8,1.8,6.5,2.6,11.1,2.6a26.81,26.81,0,0,0,12.2-2.6,6.89,6.89,0,0,0,2-1.3c-.1,1.3-.1,2.5-.2,3.9l-.5,7c-2.3,1.6-5.9,2.6-11,3.2a32.19,32.19,0,0,1-4.3.3c-7.6,0-13.9-2.2-18.8-6.6A22,22,0,0,1,1046.3,333.43Zm34.3-5.7q-1.8-9.6-10.5-9.6a11.59,11.59,0,0,0-10.4,5.9,17.06,17.06,0,0,0-1.7,3.9c.7,0,1.6.1,2.6.1h13.6l3.7-.1C1078.9,327.83,1079.8,327.83,1080.6,327.73Z"/><path id="path23393" class="cls-1" d="M1121.4,351.43a45.09,45.09,0,0,0,.2,5h-11.2v-46.9h11V313c2.5-2.9,5.2-4.3,8-4.3a17,17,0,0,1,6.6,1l-.8,12.1-.2.1c-1-1.9-3.2-2.8-6.5-2.8a7,7,0,0,0-3.9,1.3,10.74,10.74,0,0,0-3.3,3.4v27.6Z"/><path id="path23395" class="cls-1" d="M1145.8,372l3-2.4c4.5-3.6,8.1-9,11.1-16l2.1-5-17.2-39.1h12.6l10.8,27.1,10-27.1h12.9q-2.4,3.3-5.7,12l-6.7,16.6c-9,21.2-16.1,33.8-21.2,37.8Z"/><path id="path23397" class="cls-1" d="M1201.2,333.23a27,27,0,0,1,1.7-9.4,24.26,24.26,0,0,1,4.8-7.9c4.6-4.8,10.5-7.3,17.8-7.3s13,2.3,17.3,6.9c4.1,4.4,6.1,10,6.1,17s-2.1,12.7-6.3,17.3c-4.5,4.8-10.4,7.3-17.7,7.3-7.6,0-13.5-2.4-17.8-7.1C1203.2,345.63,1201.2,340,1201.2,333.23Zm10.9-.2a17.13,17.13,0,0,0,.9,5.5,11.3,11.3,0,0,0,2.7,4.5,12.67,12.67,0,0,0,9.8,4.1,10.56,10.56,0,0,0,8.8-4c2.1-2.6,3.1-5.9,3.1-10s-1.1-7.6-3.2-10.1c-2.3-2.8-5.5-4.1-9.5-4.1a11.74,11.74,0,0,0-9.6,4.4A15.18,15.18,0,0,0,1212.1,333Z"/><path id="path23399" class="cls-1" d="M1278.6,350.73a26.58,26.58,0,0,0,.4,5.7h-11.3v-46.9h10.9v4a19.29,19.29,0,0,1,12.6-4.9,14.83,14.83,0,0,1,11.7,5c2.9,3.3,4.4,7.7,4.4,13.1v17.8c0,5.1.1,8.1.2,9.1a3.6,3.6,0,0,0,.6,2c.3.3.5.6.7.8l-.1.2c-2.4-.2-4.2-.3-5.3-.3h-3.1c-1,0-2.2,0-3.9.1V332c0-8.8-2.7-13.1-8-13.1-3.9,0-7.2,2-9.9,6.1v25.7Z"/><path id="path23401" class="cls-1" d="M1326.8,333.43a25.75,25.75,0,0,1,1.8-9.7,23,23,0,0,1,5.1-7.8c4.7-4.8,10.8-7.1,18.3-7.1q9.6,0,15.3,6.3a21.65,21.65,0,0,1,5.7,15.3,15.84,15.84,0,0,1-.5,4.8c-3,.8-9.1,1.3-18.3,1.3h-15.8a12.12,12.12,0,0,0,5.4,7.5c2.8,1.8,6.5,2.6,11.1,2.6a26.81,26.81,0,0,0,12.2-2.6,6.89,6.89,0,0,0,2-1.3c-.1,1.3-.1,2.5-.2,3.9l-.5,7c-2.3,1.6-5.9,2.6-11,3.2a32.19,32.19,0,0,1-4.3.3c-7.6,0-13.9-2.2-18.8-6.6A22,22,0,0,1,1326.8,333.43Zm34.3-5.7q-1.8-9.6-10.5-9.6a11.59,11.59,0,0,0-10.4,5.9,17.06,17.06,0,0,0-1.7,3.9c.7,0,1.6.1,2.6.1h13.6l3.7-.1C1359.5,327.83,1360.3,327.83,1361.1,327.73Z"/><path id="path23403" class="cls-1" d="M1389.6,356.43a29,29,0,0,0,.4-4.8v-4.5c0-.5-.1-1-.1-1.4l-.1-1.1h13c-.1,1.1-.1,2.1-.1,2.8l-.1,1.9v3.2a38.44,38.44,0,0,0,.2,3.9Z"/></g><g id="title"><path id="path23406" class="cls-1" d="M564.2,113.33a52.54,52.54,0,0,0-37.6-89.5H471.2a12,12,0,0,0,0,23.9h55.4a29,29,0,0,1,0,58H471.2a11.89,11.89,0,0,0-11.8,11.8,12.15,12.15,0,0,0,11.8,12.1h63.4a35.75,35.75,0,1,1,0,71.5H471.2a12,12,0,0,0,0,23.9h63.4a59.86,59.86,0,0,0,59.7-59.7c.1-22.4-12.3-41.6-30.1-52Z"/><path id="path23408" class="cls-1" d="M693.5,77.83,661.9,29a11,11,0,0,0-9.2-5.2h-.3A11.25,11.25,0,0,0,642.9,41l31.6,48.8A10.88,10.88,0,0,0,684,95a11.18,11.18,0,0,0,9.5-17.2Zm79.5-54a11.07,11.07,0,0,0-9.5,5.5l-62.6,101.6v82.7a11.06,11.06,0,0,0,11.2,11.2h1.4a11.25,11.25,0,0,0,11.2-11.2v-82.7l1.4-2.3L782.4,41a11.11,11.11,0,0,0-9.4-17.2Z"/><path id="path23410" class="cls-1" d="M1092.2,23.83c-6,.6-10.6,6.3-10.6,12.3v150.1l-73.2-104.7a11.34,11.34,0,0,0-9.5-5.2c-8.6.3-13.8,10-8.9,17.2l87,124.6a15.64,15.64,0,0,0,28.4-8.9V35.63A12,12,0,0,0,1092.2,23.83Zm-136,0a12.09,12.09,0,0,0-11.8,11.8V213a12,12,0,0,0,23.9,0V35.63A12.15,12.15,0,0,0,956.2,23.83Z"/><path id="path23412" class="cls-1" d="M1202.3,23.83a12.09,12.09,0,0,0-11.8,11.8V213a12,12,0,0,0,23.9,0V35.63A12.08,12.08,0,0,0,1202.3,23.83Z"/><path id="path23414" class="cls-1" d="M1414.7,23.83a13,13,0,0,0-11.8,7.7L1351.3,161l-42.2-128.6a12.61,12.61,0,0,0-12.1-8.6h-.6a12.57,12.57,0,0,0-11.8,16.4l59.7,181.1a5.31,5.31,0,0,0,4.9,3.4,4.89,4.89,0,0,0,4.6-3.2l9.5-23.8,62.9-157a12.44,12.44,0,0,0-11.5-16.9Zm114,0h-.6a12.61,12.61,0,0,0-11.8,8.6L1473.9,161l-20.1-50.5a12.78,12.78,0,0,0-12.1-8,12.33,12.33,0,0,0-10.9,17.2l40.5,101.9a5.44,5.44,0,0,0,4.9,3.2,4.93,4.93,0,0,0,4.6-3.4l59.7-181.1a12.4,12.4,0,0,0-11.8-16.5Z"/><path id="path23416" class="cls-1" d="M1615.7,47.63h102.2a12.21,12.21,0,0,0,12.1-12.1,12.15,12.15,0,0,0-12.1-11.8H1615.7a12,12,0,0,0,0,23.9Zm102.2,153.3h-90.1v-68.6h74.6a12,12,0,0,0,12.1-11.8,12.21,12.21,0,0,0-12.1-12.1h-86.7a12.15,12.15,0,0,0-11.8,12.1v92.4a12.09,12.09,0,0,0,11.8,11.8h102.2a11.9,11.9,0,1,0,0-23.8Z"/><path id="path23418" class="cls-1" d="M1805.8,47.63H1908a12.21,12.21,0,0,0,12.1-12.1,12.15,12.15,0,0,0-12.1-11.8H1805.8a12,12,0,0,0,0,23.9Zm102.1,153.3h-90.1v-68.6h74.6a12,12,0,0,0,12.1-11.8,12.21,12.21,0,0,0-12.1-12.1h-86.7a12.15,12.15,0,0,0-11.8,12.1v92.4a12.09,12.09,0,0,0,11.8,11.8h102.2a11.9,11.9,0,1,0,0-23.8Z"/></g></g><path id="Icon" class="cls-1" d="M265.6.33c5.7-1,11.7.3,15.8,3.7,62.5,43.7,96.6,101.4,96.6,161.9,0,61.8-34.1,119.6-96.6,163.3a18.85,18.85,0,0,1-13.8,3.9,22.11,22.11,0,0,1-13.7-6.3L117.4,190.93a25.08,25.08,0,0,1-7.1-15.5c0-5.8,3-11.4,7.1-15.5a22.23,22.23,0,0,1,15.5-6.5,21.61,21.61,0,0,1,15.5,6.4L271.3,282c40.6-33.3,62.7-73.8,62.7-116.1,0-45.8-27.4-90.9-77.3-126a22,22,0,0,1-9-14.2A22,22,0,0,1,265.6.33ZM112.4,332.93a22.27,22.27,0,0,1-16.4-3.7c-61.9-43.7-96-101.5-96-163.3C0,105.43,34.1,47.73,95.9,4A21.6,21.6,0,0,1,110.5.13a21.85,21.85,0,0,1,13.6,6.3l136.4,135.9a21.63,21.63,0,0,1,6.5,15.5,22.31,22.31,0,0,1-6.4,15.5,22,22,0,0,1-15.5,6.5c-5.8,0-12.1-2.3-15.5-6.4L106.7,51.13C66.1,84.73,44,124.83,44,165.93c0,47.2,27.4,92.2,76.7,127.3a21.2,21.2,0,0,1,9.7,14.3,22,22,0,0,1-18,25.4Z"/></g></g></g></svg>