<svg xmlns="http://www.w3.org/2000/svg" xmlns:xlink="http://www.w3.org/1999/xlink" viewBox="0 0 1919.69 264.55"><defs><style>.cls-1{fill:url(#linear-gradient);}.cls-2{fill:url(#linear-gradient-2);}.cls-3{fill:url(#linear-gradient-3);}.cls-4{fill:url(#linear-gradient-4);}.cls-5{fill:url(#linear-gradient-5);}.cls-6{fill:url(#linear-gradient-6);}.cls-7{fill:url(#linear-gradient-7);}</style><linearGradient id="linear-gradient" y1="132.34" x2="177.29" y2="132.34" gradientUnits="userSpaceOnUse"><stop offset="0" stop-color="#4039c3"/><stop offset="1" stop-color="#1b1660"/></linearGradient><linearGradient id="linear-gradient-2" x1="238.92" y1="132.21" x2="426.93" y2="132.21" xlink:href="#linear-gradient"/><linearGradient id="linear-gradient-3" x1="637.4" y1="132.18" x2="848.99" y2="132.18" xlink:href="#linear-gradient"/><linearGradient id="linear-gradient-4" x1="960.83" y1="132.21" x2="992.24" y2="132.21" xlink:href="#linear-gradient"/><linearGradient id="linear-gradient-5" x1="1083.7" y1="132.21" x2="1421.73" y2="132.21" xlink:href="#linear-gradient"/><linearGradient id="linear-gradient-6" x1="1504.13" y1="132.08" x2="1669.86" y2="132.08" xlink:href="#linear-gradient"/><linearGradient id="linear-gradient-7" x1="1753.84" y1="132.08" x2="1919.69" y2="132.08" xlink:href="#linear-gradient"/></defs><g id="Calque_2" data-name="Calque 2"><g id="Main"><g id="logo-alone"><path id="path23406" class="cls-1" d="M137.73,117.75A69,69,0,0,0,88.32.13H15.51A15.89,15.89,0,0,0,0,15.64c0,8.67,7.23,15.9,15.51,15.9H88.32a38.12,38.12,0,0,1,0,76.23H15.51A15.62,15.62,0,0,0,0,123.27c0,8.68,7.23,15.91,15.51,15.91H98.83c26,0,47.18,21.16,47.18,46.78a47.23,47.23,0,0,1-47.18,47.18H15.51C7.23,233.14,0,240.37,0,249.05a15.88,15.88,0,0,0,15.51,15.5H98.83a78.66,78.66,0,0,0,78.46-78.46c.13-29.43-16.17-54.67-39.56-68.34Z"/><path id="path23408" class="cls-2" d="M307.66,71.1,266.13,7A14.4,14.4,0,0,0,254,.13h-.39a14.79,14.79,0,0,0-12.49,22.61l41.53,64.13a14.3,14.3,0,0,0,12.49,6.83c11.69,0,18.79-12.88,12.48-22.6ZM412.14.13a14.54,14.54,0,0,0-12.48,7.23L317.39,140.89V249.57a14.53,14.53,0,0,0,14.72,14.72H334a14.77,14.77,0,0,0,14.71-14.72V140.89l1.84-3,74-115.12C430.94,13,423.84.13,412.14.13Z"/><path id="path23410" class="cls-3" d="M831.64.13c-7.88.79-13.93,8.28-13.93,16.17V213.56L721.51,76A14.91,14.91,0,0,0,709,69.13c-11.31.39-18.14,13.14-11.7,22.6L811.67,255.49A20.55,20.55,0,0,0,849,243.79V15.64A15.77,15.77,0,0,0,831.64.13ZM652.91.13A15.89,15.89,0,0,0,637.4,15.64V248.78a15.89,15.89,0,0,0,15.51,15.51c8.67,0,15.9-7.23,15.9-15.51V15.64A16,16,0,0,0,652.91.13Z"/><path id="path23412" class="cls-4" d="M976.34.13a15.89,15.89,0,0,0-15.51,15.51V248.78a15.89,15.89,0,0,0,15.51,15.51c8.67,0,15.9-7.23,15.9-15.51V15.64C992.24,7.23,985,.13,976.34.13Z"/><path id="path23414" class="cls-5" d="M1255.48.13A17.14,17.14,0,0,0,1240,10.25l-67.81,170.19-55.46-169A16.57,16.57,0,0,0,1100.8.13H1100a16.51,16.51,0,0,0-15.51,21.55l78.46,238a7,7,0,0,0,6.44,4.47,6.44,6.44,0,0,0,6-4.21l12.48-31.27L1270.6,22.34c4.2-10.51-3.82-22.21-15.12-22.21Zm149.82,0h-.79a16.57,16.57,0,0,0-15.5,11.3l-55.73,169-26.41-66.37a16.82,16.82,0,0,0-15.9-10.51,16.2,16.2,0,0,0-14.33,22.61l53.23,133.92a7.16,7.16,0,0,0,6.44,4.2,6.47,6.47,0,0,0,6-4.47l78.46-238A16.3,16.3,0,0,0,1405.3.13Z"/><path id="path23416" class="cls-6" d="M1519.64,31.41H1654a16,16,0,0,0,15.9-15.9c0-8.28-7.23-15.51-15.9-15.51H1519.64a15.89,15.89,0,0,0-15.51,15.51A15.88,15.88,0,0,0,1519.64,31.41ZM1654,232.88H1535.54V142.73h98a15.71,15.71,0,0,0,15.91-15.51,16,16,0,0,0-15.91-15.9H1519.64c-8.28,0-15.51,7.22-15.51,15.9V248.65a15.89,15.89,0,0,0,15.51,15.51H1654c8.67,0,15.9-7.23,15.9-15.51A16,16,0,0,0,1654,232.88Z"/><path id="path23418" class="cls-7" d="M1769.48,31.41h134.31a16,16,0,0,0,15.9-15.9c0-8.28-7.23-15.51-15.9-15.51H1769.48A15.89,15.89,0,0,0,1754,15.51,15.88,15.88,0,0,0,1769.48,31.41Zm134.18,201.47H1785.25V142.73h98a15.71,15.71,0,0,0,15.9-15.51,16,16,0,0,0-15.9-15.9h-114c-8.28,0-15.5,7.22-15.5,15.9V248.65a15.88,15.88,0,0,0,15.5,15.51h134.32c8.67,0,15.9-7.23,15.9-15.51A15.93,15.93,0,0,0,1903.66,232.88Z"/></g></g></g></svg>