<svg xmlns="http://www.w3.org/2000/svg" xmlns:xlink="http://www.w3.org/1999/xlink" viewBox="0 0 380.74 380"><defs><style>.cls-1{fill:url(#linear-gradient);}</style><linearGradient id="linear-gradient" y1="190" x2="380.74" y2="190" gradientUnits="userSpaceOnUse"><stop offset="0" stop-color="#4039c3"/><stop offset="1" stop-color="#1b1660"/></linearGradient></defs><g id="Calque_2" data-name="Calque 2"><g id="Main"><path id="Favicon" class="cls-1" d="M267.52.36a18.23,18.23,0,0,1,15.85,4.19c63,49.8,97.37,115.6,97.37,184.69,0,70.51-34.35,136.38-97.37,186.18a17.82,17.82,0,0,1-13.93,4.48,21.49,21.49,0,0,1-13.81-7.17l-137.39-155c-4.23-4.63-6.54-11-7.2-17.72a27.54,27.54,0,0,1,7.13-17.72,21.45,21.45,0,0,1,15.66-7.4,20.66,20.66,0,0,1,15.65,7.33L273.2,321.66c40.89-37.91,63.15-84.12,63.15-132.42,0-52.27-27.61-103.71-77.81-143.64a25,25,0,0,1-9.05-16.23,27.27,27.27,0,0,1,3.76-18.76A21.74,21.74,0,0,1,267.52.36ZM113.15,379.61a20.48,20.48,0,0,1-16.58-4.27C34.28,325.62,0,259.67,0,189.24c0-69,34.35-134.82,96.64-184.61A20.38,20.38,0,0,1,111.3.14,21.24,21.24,0,0,1,125,7.39L262.43,162.32A26.2,26.2,0,0,1,269,180a27.64,27.64,0,0,1-6.47,17.72,21,21,0,0,1-15.65,7.4c-5.82,0-12.16-2.61-15.66-7.32L107.47,58.24c-40.89,38.35-63.15,84.11-63.15,131,0,53.76,27.61,105.2,77.22,145.13a23.74,23.74,0,0,1,9.71,16.3,28.11,28.11,0,0,1-3.77,18.77,21.91,21.91,0,0,1-14.33,10.17Z"/></g></g></svg>