<?xml version="1.0" encoding="utf-8"?>
<!-- Generator: Adobe Illustrator 21.0.0, SVG Export Plug-In . SVG Version: 6.00 Build 0)  -->
<svg version="1.0" id="Layer_1" xmlns="http://www.w3.org/2000/svg" xmlns:xlink="http://www.w3.org/1999/xlink" x="0px" y="0px"
	 viewBox="0 0 1920 791" style="enable-background:new 0 0 1920 791;" xml:space="preserve">
<style type="text/css">
	.st0{fill:#4E11BE;}
</style>
<path class="st0" d="M1625,205c27.6,0,50,22.4,50,50s-22.4,50-50,50s-50-22.4-50-50S1597.4,205,1625,205z"/>
<path class="st0" d="M992,602c27.6,0,50,22.4,50,50s-22.4,50-50,50s-50-22.4-50-50S964.4,602,992,602z"/>
<path class="st0" d="M1242,624l188-204l468,371h-445L1242,624z"/>
<path class="st0" d="M1339,386c76.8,0,139,62.2,139,139s-62.2,139-139,139s-139-62.2-139-139S1262.2,386,1339,386z"/>
<path class="st0" d="M1026.5-188c145,0,262.5,117.5,262.5,262.5S1171.5,337,1026.5,337S764,219.5,764,74.5S881.5-188,1026.5-188z"/>
<path class="st0" d="M174.5,337.6l171.7,220.8c26.9,34.6,20.7,84.4-13.9,111.3L125.7,830.4C91.1,857.2,41.3,851,14.5,816.5
	l-171.7-220.8c-26.9-34.6-20.7-84.4,13.9-111.3L63.3,323.7C97.9,296.8,147.7,303,174.5,337.6z"/>
<path class="st0" d="M273,105c27.6,0,50,22.4,50,50s-22.4,50-50,50s-50-22.4-50-50S245.4,105,273,105z"/>
</svg>
